# Blender v2.58 (sub 1) OBJ File: 'untitled.blend'
# www.blender.org
mtllib cloudbox.mtl
o Cube
v 8.000000 -8.000000 -19.999998
v 8.000000 -8.000000 20.000000
v -8.000001 -8.000000 19.999996
v -7.999997 -8.000000 -20.000008
v 8.000004 8.000000 -19.999989
v 7.999995 8.000000 20.000011
v -8.000003 8.000000 19.999992
v -8.000000 8.000000 -20.000000
vt 0.501561 0.500839
vt 0.001802 0.500839
vt 0.001802 0.001080
vt 0.501561 0.001080
vt 0.501561 1.000598
vt 0.001802 1.000598
vt 1.001320 0.500839
vt 1.001320 1.000598
vn 0.000000 1.000000 0.000000
vn 0.000000 -1.000000 0.000000
vn -1.000000 -0.000000 -0.000000
vn 0.000001 0.000000 -1.000000
vn 1.000000 0.000000 0.000000
vn -0.000001 -0.000001 1.000000
usemtl Material_clouds2.bmp
s off
f 1/1/1 4/2/1 3/3/1 2/4/1
f 5/5/2 6/1/2 7/2/2 8/6/2
f 1/1/3 2/2/3 6/6/3 5/5/3
f 2/1/4 3/2/4 7/6/4 6/5/4
f 3/1/5 4/7/5 8/8/5 7/5/5
f 4/3/6 1/4/6 5/1/6 8/2/6
