# Blender v2.58 (sub 1) OBJ File: 'untitled.blend'
# www.blender.org
mtllib flame.mtl
o Plane_Plane.001
v 0.380986 0.520339 -0.004218
v -0.149204 0.550606 0.080551
v -0.199952 0.147159 0.005980
v 0.257372 0.107979 0.000431
v 0.001282 0.853725 0.013231
v 0.367931 0.419431 0.000607
v -0.000001 0.004998 0.000008
v -0.349692 0.302834 0.000467
v 0.007681 0.368405 0.166425
v -0.314000 0.536279 0.023179
v -0.189634 0.230754 0.014175
v -0.102814 0.447204 0.110429
v -0.125583 0.356658 0.106257
v -0.168890 0.418743 0.065997
v -0.183914 0.344691 0.050744
v -0.277308 0.401035 0.011950
v -0.226836 0.433621 0.019131
v -0.237694 0.329797 0.011949
v -0.187746 0.519404 0.055220
v -0.235129 0.496777 0.025835
v -0.160828 0.487007 0.070527
v -0.137727 0.661001 0.022966
v -0.112560 0.531260 0.068213
v -0.060334 0.508307 0.081264
v -0.056772 0.615409 0.034468
v -0.020596 0.613705 0.042506
v -0.075672 0.579280 0.050438
v 0.127088 0.624631 0.039264
v 0.035143 0.565460 0.040560
v 0.148070 0.491075 0.092249
v 0.040587 0.718081 0.045263
v 0.017841 0.731006 0.060988
v 0.071213 0.614003 0.041905
v 0.093889 0.708981 0.012447
v 0.087078 0.654814 0.031815
v 0.057726 0.666122 0.041225
v 0.203940 0.626615 0.035727
v 0.194929 0.478126 0.010770
v 0.139264 0.551606 0.015655
v 0.245384 0.517545 0.022578
v 0.270336 0.482658 0.001013
v 0.179963 0.523932 0.049799
v 0.350573 0.263703 0.003696
v 0.132665 0.365652 0.126217
v 0.144211 0.260793 0.064398
v 0.301751 0.330508 0.021740
v 0.216414 0.384932 0.016398
v 0.216486 0.323027 0.002713
v -0.091410 0.030860 0.000011
v 0.002356 0.175121 0.003652
v -0.079133 0.222532 0.016967
v -0.157310 0.086085 0.000427
v -0.126234 0.179799 -0.003677
v -0.070296 0.155462 -0.015004
v 0.142688 0.031717 -0.000001
v 0.203284 0.166001 0.025913
v 0.096898 0.141315 -0.005570
vn -0.121625 -0.081961 0.989186
vn -0.415271 0.062603 0.907541
vn -0.337657 -0.437687 0.833317
vn -0.586962 0.110639 0.802019
vn -0.688304 -0.009764 0.725357
vn -0.653252 -0.201460 0.729847
vn -0.633325 -0.030789 0.773274
vn -0.524607 -0.236187 0.817926
vn -0.096165 -0.024307 0.995069
vn -0.585974 0.005232 0.810313
vn -0.103949 -0.057810 0.992901
vn -0.089936 -0.050017 0.994691
vn -0.074850 -0.102660 0.991896
vn -0.275327 -0.494272 0.824555
vn -0.517793 -0.026217 0.855104
vn -0.527548 -0.037347 0.848704
vn -0.515055 0.003957 0.857148
vn -0.561349 0.011392 0.827501
vn -0.645453 -0.163936 0.746000
vn -0.091922 -0.117035 0.988865
vn 0.466132 0.370585 0.803360
vn -0.027494 0.446099 0.894561
vn -0.096814 0.482753 0.870389
vn -0.320966 0.395088 0.860748
vn 0.221075 -0.191130 0.956345
vn -0.060005 0.386724 0.920241
vn 0.020977 0.332847 0.942748
vn -0.208697 0.137128 0.968319
vn -0.170064 0.471465 0.865332
vn -0.103341 0.377374 0.920277
vn 0.076444 0.369379 0.926129
vn -0.244706 0.414573 0.876498
vn -0.028484 0.540893 0.840609
vn 0.415296 0.447868 0.791798
vn -0.298499 0.195925 0.934083
vn 0.111508 -0.110216 0.987633
vn 0.658878 0.348362 0.666726
vn -0.078123 -0.130132 0.988414
vn -0.755116 0.146764 0.638952
vn -0.151165 0.292234 0.944324
vn 0.655042 0.179083 0.734064
vn 0.616580 0.143229 0.774154
vn 0.534714 0.111289 0.837673
vn 0.386021 0.267159 0.882957
vn 0.071884 0.327777 0.942017
vn 0.338438 0.099778 0.935684
vn 0.322949 0.945753 0.035424
vn 0.758153 0.551184 0.348427
vn 0.051577 -0.299412 0.952729
vn 0.883435 0.411667 0.223768
vn -0.414821 -0.341788 0.843270
vn 0.032370 0.043556 0.998526
vn 0.116157 0.173019 0.978045
vn -0.719589 -0.571363 0.394633
vn -0.526051 0.234861 0.817380
vn 0.386904 0.035935 0.921420
vn 0.340033 -0.306390 0.889102
vn 0.184393 -0.417981 0.889545
vn 0.137391 -0.616009 0.775665
vn 0.261144 -0.468738 0.843853
vn 0.303412 0.214188 0.928474
vn 0.231246 0.536132 0.811842
vn 0.749628 -0.272936 0.602962
vn 0.799314 -0.128818 0.586944
vn -0.195103 -0.211926 0.957613
vn 0.059133 0.188938 0.980207
vn -0.171046 -0.371488 0.912546
vn 0.787362 0.069202 0.612594
vn 0.198668 -0.481925 0.853393
vn -0.006001 -0.021328 0.999754
vn -0.239719 -0.621500 0.745837
vn -0.069715 -0.693353 0.717218
vn 0.062331 -0.643906 0.762562
vn -0.110006 -0.439459 0.891501
vn -0.286393 0.162320 0.944262
vn 0.129699 0.000411 0.991553
vn 0.190048 -0.020038 0.981570
vn -0.004688 -0.430795 0.902438
vn 0.093036 0.103568 0.990262
vn 0.180148 -0.117969 0.976540
vn -0.052079 -0.387281 0.920490
vn 0.278772 -0.207006 0.937782
vn 0.259481 -0.175209 0.949722
vn 0.169192 -0.259817 0.950721
vn -0.269550 -0.063791 0.960871
vn -0.008757 0.047099 0.998852
vn -0.154744 -0.452904 0.878027
vn 0.089062 -0.022560 0.995771
vn -0.085658 -0.478004 0.874171
usemtl Material.001
s off
f 11//1 8//1 3//1
f 12//2 13//2 9//2
f 13//3 11//3 9//3
f 13//4 12//4 14//4
f 14//5 15//5 13//5
f 11//6 13//6 15//6
f 17//7 15//7 14//7
f 15//8 18//8 11//8
f 18//9 8//9 11//9
f 18//10 15//10 17//10
f 17//11 16//11 18//11
f 8//12 18//12 16//12
f 16//13 17//13 10//13
f 19//14 10//14 20//14
f 20//15 21//15 19//15
f 2//16 19//16 21//16
f 21//17 20//17 14//17
f 21//18 14//18 12//18
f 14//19 20//19 17//19
f 20//20 10//20 17//20
f 22//21 2//21 23//21
f 24//22 23//22 12//22
f 24//23 12//23 9//23
f 12//24 23//24 21//24
f 23//25 2//25 21//25
f 24//26 27//26 23//26
f 27//27 22//27 23//27
f 26//28 5//28 25//28
f 25//29 27//29 26//29
f 24//30 26//30 27//30
f 27//31 25//31 22//31
f 26//32 24//32 9//32
f 9//33 30//33 29//33
f 9//34 29//34 26//34
f 33//35 29//35 30//35
f 32//36 29//36 33//36
f 5//37 32//37 31//37
f 29//38 32//38 26//38
f 32//39 5//39 26//39
f 35//40 33//40 30//40
f 33//41 36//41 32//41
f 36//42 31//42 32//42
f 34//43 31//43 36//43
f 36//44 35//44 34//44
f 28//45 34//45 35//45
f 35//46 36//46 33//46
f 38//47 30//47 6//47
f 39//48 30//48 38//48
f 28//49 39//49 37//49
f 30//50 39//50 35//50
f 39//51 28//51 35//51
f 1//52 41//52 6//52
f 41//53 38//53 6//53
f 38//54 42//54 39//54
f 42//55 37//55 39//55
f 40//56 37//56 42//56
f 42//57 41//57 40//57
f 1//58 40//58 41//58
f 41//59 42//59 38//59
f 9//60 45//60 44//60
f 9//61 44//61 30//61
f 43//62 48//62 45//62
f 48//63 44//63 45//63
f 47//64 44//64 48//64
f 48//65 46//65 47//65
f 6//66 47//66 46//66
f 46//67 48//67 43//67
f 44//68 47//68 30//68
f 47//69 6//69 30//69
f 49//70 7//70 50//70
f 51//71 50//71 9//71
f 51//72 9//72 11//72
f 9//73 50//73 45//73
f 51//74 54//74 50//74
f 54//75 49//75 50//75
f 53//76 3//76 52//76
f 52//77 54//77 53//77
f 51//78 53//78 54//78
f 54//79 52//79 49//79
f 3//80 53//80 11//80
f 53//81 51//81 11//81
f 45//82 56//82 43//82
f 56//83 4//83 43//83
f 55//84 4//84 56//84
f 56//85 57//85 55//85
f 7//86 55//86 57//86
f 57//87 56//87 45//87
f 7//88 57//88 50//88
f 57//89 45//89 50//89
