# Blender v2.58 (sub 1) OBJ File: 'tube.blend'
# www.blender.org
mtllib tube.mtl
o Cylinder
v 0.000000 -4.687500 -0.375000
v 0.073159 -4.687500 -0.367794
v 0.143506 -4.687500 -0.346455
v 0.208339 -4.687500 -0.311801
v 0.265165 -4.687500 -0.265165
v 0.311801 -4.687500 -0.208339
v 0.346455 -4.687500 -0.143506
v 0.367794 -4.687500 -0.073159
v 0.375000 -4.687500 -0.000000
v -0.375000 -4.687500 -0.000000
v -0.367794 -4.687500 -0.073159
v -0.346455 -4.687500 -0.143507
v -0.311801 -4.687500 -0.208339
v -0.265165 -4.687500 -0.265165
v -0.208338 -4.687500 -0.311801
v -0.143506 -4.687500 -0.346455
v -0.073158 -4.687500 -0.367795
v 0.000001 4.687500 -0.375000
v 0.073159 4.687500 -0.367794
v 0.143507 4.687500 -0.346455
v 0.208339 4.687500 -0.311801
v 0.265166 4.687500 -0.265165
v 0.311802 4.687500 -0.208338
v 0.346455 4.687500 -0.143506
v 0.367795 4.687500 -0.073158
v 0.375000 4.687500 0.000001
v -0.375000 4.687500 0.000002
v -0.367795 4.687500 -0.073157
v -0.346456 4.687500 -0.143505
v -0.311802 4.687500 -0.208337
v -0.265167 4.687500 -0.265164
v -0.208341 4.687500 -0.311800
v -0.143509 4.687500 -0.346454
v -0.073161 4.687500 -0.367794
v 0.000000 -4.687500 0.000000
v 0.000000 4.687500 0.000000
v 0.000000 -5.000000 -0.500000
v 0.097545 -5.000000 -0.490393
v 0.191342 -5.000000 -0.461940
v 0.277785 -5.000000 -0.415735
v 0.353553 -5.000000 -0.353553
v 0.415735 -5.000000 -0.277785
v 0.461940 -5.000000 -0.191342
v 0.490393 -5.000000 -0.097545
v 0.500000 -5.000000 -0.000000
v -0.500000 -5.000000 -0.000000
v -0.490393 -5.000000 -0.097546
v -0.461940 -5.000000 -0.191342
v -0.415734 -5.000000 -0.277786
v -0.353553 -5.000000 -0.353554
v -0.277785 -5.000000 -0.415735
v -0.191341 -5.000000 -0.461940
v -0.097544 -5.000000 -0.490393
v 0.000001 5.000000 -0.500000
v 0.097546 5.000000 -0.490392
v 0.191343 5.000000 -0.461939
v 0.277786 5.000000 -0.415734
v 0.353554 5.000000 -0.353553
v 0.415735 5.000000 -0.277784
v 0.461940 5.000000 -0.191341
v 0.490393 5.000000 -0.097544
v 0.500000 5.000000 0.000001
v -0.500000 5.000000 0.000002
v -0.490393 5.000000 -0.097543
v -0.461941 5.000000 -0.191339
v -0.415736 5.000000 -0.277783
v -0.353555 5.000000 -0.353551
v -0.277788 5.000000 -0.415733
v -0.191345 5.000000 -0.461939
v -0.097549 5.000000 -0.490392
v 0.000000 -5.000000 0.000000
v 0.000000 5.000000 0.000000
vn -0.142003 0.685690 0.713889
vn 0.000000 0.685690 0.727866
vn 0.000000 0.707083 0.707083
vn 0.000000 -0.707083 0.707083
vn 0.000000 -0.685690 0.727866
vn -0.142003 -0.685690 0.713889
vn -0.278542 0.685690 0.672475
vn -0.278542 -0.685690 0.672475
vn -0.404370 0.685690 0.605213
vn -0.404370 -0.685690 0.605213
vn -0.514664 0.685690 0.514664
vn -0.514695 -0.685690 0.514664
vn -0.605213 0.685690 0.404370
vn -0.605213 -0.685690 0.404370
vn -0.672475 0.685690 0.278542
vn -0.672475 -0.685690 0.278542
vn -0.713889 0.685690 0.142003
vn -0.713889 -0.685690 0.141972
vn -0.293863 0.276833 0.914853
vn -0.293863 -0.276833 0.914853
vn 0.713889 0.685690 0.142003
vn 0.293863 0.276833 0.914853
vn 0.293863 -0.276833 0.914853
vn 0.713889 -0.685690 0.141972
vn 0.672475 0.685690 0.278542
vn 0.672475 -0.685690 0.278542
vn 0.605213 0.685690 0.404370
vn 0.605213 -0.685690 0.404370
vn 0.514664 0.685690 0.514664
vn 0.514695 -0.685690 0.514664
vn 0.404370 0.685690 0.605213
vn 0.404370 -0.685690 0.605213
vn 0.278542 0.685690 0.672475
vn 0.278542 -0.685690 0.672475
vn 0.142003 0.685690 0.713889
vn 0.142003 -0.685690 0.713889
vn 0.000000 1.000000 0.000000
vn 0.000000 -0.685690 -0.727866
vn 0.142003 -0.685690 -0.713889
vn 0.142003 0.685690 -0.713889
vn 0.000000 0.685690 -0.727866
vn 0.278542 -0.685690 -0.672475
vn 0.278542 0.685690 -0.672475
vn 0.404370 -0.685690 -0.605213
vn 0.404370 0.685690 -0.605213
vn 0.514664 -0.685690 -0.514664
vn 0.514695 0.685690 -0.514664
vn 0.605213 -0.685690 -0.404370
vn 0.605213 0.685690 -0.404370
vn 0.672475 -0.685690 -0.278542
vn 0.672475 0.685690 -0.278542
vn 0.713889 -0.685690 -0.142003
vn 0.713889 0.685690 -0.141972
vn 0.607562 -0.572344 0.550676
vn 0.607562 0.572344 0.550676
vn -0.607562 -0.572344 0.550676
vn -0.713889 -0.685690 -0.142003
vn -0.713889 0.685690 -0.141972
vn -0.607562 0.572344 0.550676
vn -0.672475 -0.685690 -0.278542
vn -0.672475 0.685690 -0.278542
vn -0.605213 -0.685690 -0.404370
vn -0.605213 0.685690 -0.404370
vn -0.514664 -0.685690 -0.514695
vn -0.514695 0.685690 -0.514664
vn -0.404370 -0.685690 -0.605213
vn -0.404370 0.685690 -0.605213
vn -0.278542 -0.685690 -0.672475
vn -0.278542 0.685690 -0.672475
vn -0.142003 -0.685690 -0.713889
vn -0.142003 0.685690 -0.713889
usemtl Material.001
s 1
f 2//1 1//2 35//3
f 36//4 18//5 19//6
f 35//3 3//7 2//1
f 36//4 19//6 20//8
f 35//3 4//9 3//7
f 36//4 20//8 21//10
f 35//3 5//11 4//9
f 36//4 21//10 22//12
f 35//3 6//13 5//11
f 36//4 22//12 23//14
f 35//3 7//15 6//13
f 36//4 23//14 24//16
f 35//3 8//17 7//15
f 36//4 24//16 25//18
f 35//3 9//19 8//17
f 36//4 25//18 26//20
f 35//3 11//21 10//22
f 36//4 27//23 28//24
f 35//3 12//25 11//21
f 36//4 28//24 29//26
f 35//3 13//27 12//25
f 36//4 29//26 30//28
f 35//3 14//29 13//27
f 36//4 30//28 31//30
f 35//3 15//31 14//29
f 36//4 31//30 32//32
f 35//3 16//33 15//31
f 36//4 32//32 33//34
f 35//3 17//35 16//33
f 36//4 33//34 34//36
f 35//3 1//2 17//35
f 36//4 34//36 18//5
f 71//37 37//38 38//39
f 72//3 55//40 54//41
f 71//37 38//39 39//42
f 72//3 56//43 55//40
f 71//37 39//42 40//44
f 72//3 57//45 56//43
f 71//37 40//44 41//46
f 72//3 58//47 57//45
f 71//37 41//46 42//48
f 72//3 59//49 58//47
f 71//37 42//48 43//50
f 72//3 60//51 59//49
f 71//37 43//50 44//52
f 72//3 61//53 60//51
f 71//37 44//52 45//54
f 72//3 62//55 61//53
f 71//37 46//56 47//57
f 72//3 64//58 63//59
f 71//37 47//57 48//60
f 72//3 65//61 64//58
f 71//37 48//60 49//62
f 72//3 66//63 65//61
f 71//37 49//62 50//64
f 72//3 67//65 66//63
f 71//37 50//64 51//66
f 72//3 68//67 67//65
f 71//37 51//66 52//68
f 72//3 69//69 68//67
f 71//37 52//68 53//70
f 72//3 70//71 69//69
f 53//70 37//38 71//37
f 72//3 54//41 70//71
f 27//23 63//59 46//56
f 72//3 63//59 27//23
f 26//20 62//55 36//4
f 45//54 62//55 26//20
f 10//22 27//23 46//56
f 45//54 26//20 9//19
f 35//3 10//22 46//56
f 45//54 46//56 71//37
f 72//3 27//23 36//4
f 72//3 36//4 62//55
f 35//3 46//56 45//54
f 35//3 45//54 9//19
f 54//41 37//38 53//70
f 54//41 53//70 70//71
f 52//68 69//69 70//71
f 52//68 70//71 53//70
f 51//66 68//67 69//69
f 51//66 69//69 52//68
f 50//64 67//65 68//67
f 50//64 68//67 51//66
f 49//62 66//63 67//65
f 49//62 67//65 50//64
f 48//60 65//61 66//63
f 48//60 66//63 49//62
f 47//57 64//58 65//61
f 47//57 65//61 48//60
f 46//56 63//59 64//58
f 46//56 64//58 47//57
f 44//52 61//53 45//54
f 61//53 62//55 45//54
f 43//50 60//51 44//52
f 60//51 61//53 44//52
f 42//48 59//49 43//50
f 59//49 60//51 43//50
f 41//46 58//47 42//48
f 58//47 59//49 42//48
f 40//44 57//45 41//46
f 57//45 58//47 41//46
f 39//42 56//43 40//44
f 56//43 57//45 40//44
f 38//39 55//40 39//42
f 55//40 56//43 39//42
f 37//38 54//41 38//39
f 54//41 55//40 38//39
f 17//35 1//2 18//5
f 17//35 18//5 34//36
f 16//33 17//35 34//36
f 16//33 34//36 33//34
f 15//31 16//33 33//34
f 15//31 33//34 32//32
f 14//29 15//31 32//32
f 14//29 32//32 31//30
f 13//27 14//29 31//30
f 13//27 31//30 30//28
f 12//25 13//27 30//28
f 12//25 30//28 29//26
f 11//21 12//25 29//26
f 11//21 29//26 28//24
f 10//22 11//21 28//24
f 10//22 28//24 27//23
f 8//17 9//19 25//18
f 9//19 26//20 25//18
f 7//15 8//17 24//16
f 8//17 25//18 24//16
f 6//13 7//15 23//14
f 7//15 24//16 23//14
f 5//11 6//13 22//12
f 6//13 23//14 22//12
f 4//9 5//11 21//10
f 5//11 22//12 21//10
f 3//7 4//9 20//8
f 4//9 21//10 20//8
f 2//1 3//7 19//6
f 3//7 20//8 19//6
f 1//2 2//1 18//5
f 2//1 19//6 18//5
