# Blender v2.63 (sub 0) OBJ File: 'topPannel.blend'
# www.blender.org
mtllib topPannel.mtl
o Cube
v -10.000000 -1.000000 0.100000
v -10.000000 -1.000000 -0.100000
v 10.000000 -1.000000 -0.100000
v 10.000000 -1.000000 0.100000
v -10.000000 1.000000 0.100000
v -10.000000 1.000000 -0.100000
v 10.000000 1.000000 -0.100000
v 10.000000 1.000000 0.100000
v -10.000000 1.000000 0.000000
v -10.000000 0.000000 -0.100000
v -10.000000 -1.000000 0.000000
v -10.000000 0.000000 0.100000
v 0.000000 1.000000 -0.100000
v 10.000000 0.000000 -0.100000
v 0.000000 -1.000000 -0.100000
v 10.000000 1.000000 0.000000
v 10.000000 0.000000 0.100000
v 10.000000 -1.000000 0.000000
v 0.000000 1.000000 0.100000
v 0.000000 -1.000000 0.100000
v -10.000000 0.000000 0.000000
v 0.000000 0.000000 -0.100000
v 10.000000 0.000000 0.000000
v 0.000000 0.000000 0.100000
v 0.000000 -1.000000 0.000000
v 0.000000 1.000000 0.000000
v -10.000000 1.000000 -0.050000
v -10.000000 -0.500000 -0.100000
v -10.000000 -1.000000 0.050000
v -10.000000 0.500000 0.100000
v 5.000000 1.000000 -0.100000
v 10.000000 -0.500000 -0.100000
v -5.000000 -1.000000 -0.100000
v 10.000000 1.000000 0.050000
v 10.000000 -0.500000 0.100000
v 10.000000 -1.000000 -0.050000
v -5.000000 1.000000 0.100000
v 5.000000 -1.000000 0.100000
v -10.000000 -0.500000 -0.050000
v 5.000000 -0.500000 -0.100000
v 10.000000 -0.500000 0.050000
v -5.000000 -0.500000 0.100000
v 5.000000 -1.000000 -0.050000
v -5.000000 1.000000 -0.050000
v -10.000000 1.000000 0.050000
v -10.000000 0.500000 -0.100000
v -10.000000 -1.000000 -0.050000
v -10.000000 -0.500000 0.100000
v -5.000000 1.000000 -0.100000
v 10.000000 0.500000 -0.100000
v 5.000000 -1.000000 -0.100000
v 10.000000 1.000000 -0.050000
v 10.000000 0.500000 0.100000
v 10.000000 -1.000000 0.050000
v 5.000000 1.000000 0.100000
v -5.000000 -1.000000 0.100000
v -10.000000 0.500000 0.050000
v -5.000000 0.500000 -0.100000
v 10.000000 0.500000 -0.050000
v 5.000000 0.500000 0.100000
v -5.000000 -1.000000 0.050000
v 5.000000 1.000000 0.050000
v -10.000000 0.000000 -0.050000
v -10.000000 0.500000 0.000000
v -10.000000 0.500000 -0.050000
v 5.000000 0.000000 -0.100000
v 0.000000 0.500000 -0.100000
v 5.000000 0.500000 -0.100000
v 10.000000 0.000000 0.050000
v 10.000000 0.500000 0.000000
v 10.000000 0.500000 0.050000
v -5.000000 0.000000 0.100000
v 0.000000 0.500000 0.100000
v -5.000000 0.500000 0.100000
v 0.000000 -1.000000 -0.050000
v -5.000000 -1.000000 0.000000
v -5.000000 -1.000000 -0.050000
v 0.000000 1.000000 -0.050000
v 5.000000 1.000000 0.000000
v 5.000000 1.000000 -0.050000
v -10.000000 -0.500000 0.000000
v -10.000000 -0.500000 0.050000
v -10.000000 0.000000 0.050000
v 0.000000 -0.500000 -0.100000
v -5.000000 -0.500000 -0.100000
v -5.000000 0.000000 -0.100000
v 10.000000 -0.500000 0.000000
v 10.000000 -0.500000 -0.050000
v 10.000000 0.000000 -0.050000
v 0.000000 -0.500000 0.100000
v 5.000000 -0.500000 0.100000
v 5.000000 0.000000 0.100000
v 5.000000 -1.000000 0.000000
v 5.000000 -1.000000 0.050000
v 0.000000 -1.000000 0.050000
v -5.000000 1.000000 0.000000
v -5.000000 1.000000 0.050000
v 0.000000 1.000000 0.050000
vt 0.996942 1.000000
vt 0.747706 0.999236
vt 0.748471 0.750000
vt 0.999751 1.000248
vt 0.749751 1.000124
vt 0.749876 0.750124
vt 1.000000 0.003059
vt 0.999235 0.252294
vt 0.750765 0.002294
vt 1.000248 0.000249
vt 1.000124 0.250249
vt 0.750248 0.000124
vt 0.500000 0.500000
vt 0.250765 0.499235
vt 0.251529 0.250000
vt 0.499235 0.749236
vt 0.498471 0.998471
vt 0.249235 0.997706
vt 0.250000 0.748471
vt 0.250000 0.499876
vt 0.250124 0.249876
vt 0.499876 0.750000
vt 0.499752 1.000000
vt 0.249752 0.999876
vt 0.249876 0.749876
vt 0.501529 0.001529
vt 0.500765 0.250765
vt 0.252294 0.000765
vt 0.750000 0.251529
vt 0.998471 0.501529
vt 0.997706 0.750765
vt 0.749235 0.500765
vt 0.500248 0.000000
vt 0.500124 0.250000
vt 0.250249 -0.000124
vt 0.750124 0.250124
vt 1.000000 0.500248
vt 0.999876 0.750248
vt 0.750000 0.500124
vt 0.002294 0.249235
vt 0.003058 0.000000
vt 0.001529 0.498471
vt 0.000765 0.747706
vt 0.000000 0.996942
vt 0.000124 0.249752
vt 0.000249 -0.000248
vt 0.000000 0.499752
vt -0.000124 0.749751
vt -0.000248 0.999751
vt 0.000000 0.000000
vt 0.250000 0.000000
vt 0.250000 0.250000
vt 0.000000 1.000000
vt 0.000000 0.750000
vt 0.250000 1.000000
vt 0.750000 0.500000
vt 0.750000 0.750000
vt 0.500000 0.250000
vt 0.500000 0.000000
vt 0.750000 0.000000
vt 0.750000 0.250000
vt 0.500000 1.000000
vt 0.500000 0.750000
vt 0.750000 1.000000
vt 0.250000 0.750000
vt 0.000000 0.500000
vt 0.000000 0.250000
vt 0.250000 0.500000
vt 1.000000 0.750000
vt 1.000000 1.000000
vt 1.000000 0.500000
vt 1.000000 0.250000
vt 1.000000 0.000000
vn 0.000000 0.000000 -1.000000
vn 0.000000 0.000000 1.000000
vn -1.000000 0.000000 0.000000
vn 1.000000 -0.000000 0.000000
vn 0.000000 -1.000000 0.000000
vn 0.000000 1.000000 0.000000
usemtl _topPannel.bmp
s off
f 6/1/1 49/2/1 58/3/1
f 8/4/2 55/5/2 60/6/2
f 2/7/1 28/8/1 33/9/1
f 4/10/2 35/11/2 38/12/2
f 22/13/1 66/14/1 40/15/1
f 22/13/1 67/16/1 66/14/1
f 13/17/1 31/18/1 68/19/1
f 24/13/2 72/20/2 42/21/2
f 24/13/2 73/22/2 72/20/2
f 19/23/2 37/24/2 74/25/2
f 15/26/1 84/27/1 51/28/1
f 15/26/1 85/29/1 84/27/1
f 10/30/1 46/31/1 86/32/1
f 20/33/2 90/34/2 56/35/2
f 20/33/2 91/36/2 90/34/2
f 17/37/2 53/38/2 92/39/2
f 58/3/1 67/16/1 22/13/1
f 58/3/1 49/2/1 67/16/1
f 49/2/1 13/17/1 67/16/1
f 60/6/2 73/22/2 24/13/2
f 60/6/2 55/5/2 73/22/2
f 55/5/2 19/23/2 73/22/2
f 33/9/1 85/29/1 15/26/1
f 33/9/1 28/8/1 85/29/1
f 28/8/1 10/30/1 85/29/1
f 38/12/2 91/36/2 20/33/2
f 38/12/2 35/11/2 91/36/2
f 35/11/2 17/37/2 91/36/2
f 40/15/1 32/40/1 3/41/1
f 40/15/1 66/14/1 32/40/1
f 66/14/1 14/42/1 32/40/1
f 66/14/1 68/19/1 14/42/1
f 66/14/1 67/16/1 68/19/1
f 67/16/1 13/17/1 68/19/1
f 68/19/1 50/43/1 14/42/1
f 68/19/1 31/18/1 50/43/1
f 31/18/1 7/44/1 50/43/1
f 48/45/2 1/46/2 42/21/2
f 42/21/2 72/20/2 48/45/2
f 72/20/2 12/47/2 48/45/2
f 72/20/2 74/25/2 12/47/2
f 72/20/2 73/22/2 74/25/2
f 73/22/2 19/23/2 74/25/2
f 74/25/2 30/48/2 12/47/2
f 74/25/2 37/24/2 30/48/2
f 37/24/2 5/49/2 30/48/2
f 51/28/1 40/15/1 3/41/1
f 51/28/1 84/27/1 40/15/1
f 84/27/1 22/13/1 40/15/1
f 84/27/1 86/32/1 22/13/1
f 84/27/1 85/29/1 86/32/1
f 85/29/1 10/30/1 86/32/1
f 86/32/1 58/3/1 22/13/1
f 86/32/1 46/31/1 58/3/1
f 46/31/1 6/1/1 58/3/1
f 42/21/2 1/46/2 56/35/2
f 56/35/2 90/34/2 42/21/2
f 90/34/2 24/13/2 42/21/2
f 90/34/2 92/39/2 24/13/2
f 90/34/2 91/36/2 92/39/2
f 91/36/2 17/37/2 92/39/2
f 92/39/2 60/6/2 24/13/2
f 92/39/2 53/38/2 60/6/2
f 53/38/2 8/4/2 60/6/2
usemtl 
f 5/50/3 45/51/3 57/52/3
f 7/50/4 52/51/4 59/52/4
f 1/50/5 29/51/5 61/52/5
f 8/50/6 34/51/6 62/52/6
f 1/53/3 48/54/3 29/55/3
f 3/53/4 32/54/4 36/55/4
f 4/53/5 38/54/5 54/55/5
f 5/53/6 37/54/6 45/55/6
f 21/13/3 63/56/3 39/57/3
f 21/13/3 64/58/3 63/56/3
f 9/59/3 27/60/3 65/61/3
f 23/13/4 69/56/4 41/57/4
f 23/13/4 70/58/4 69/56/4
f 16/59/4 34/60/4 71/61/4
f 25/13/5 75/56/5 43/57/5
f 25/13/5 76/58/5 75/56/5
f 11/59/5 47/60/5 77/61/5
f 26/13/6 78/56/6 44/57/6
f 26/13/6 79/58/6 78/56/6
f 16/59/6 52/60/6 80/61/6
f 11/62/3 81/63/3 47/64/3
f 11/62/3 82/65/3 81/63/3
f 12/66/3 30/67/3 83/68/3
f 18/62/4 87/63/4 54/64/4
f 18/62/4 88/65/4 87/63/4
f 14/66/4 50/67/4 89/68/4
f 18/62/5 93/63/5 36/64/5
f 18/62/5 94/65/5 93/63/5
f 20/66/5 56/67/5 95/68/5
f 9/62/6 96/63/6 27/64/6
f 9/62/6 97/65/6 96/63/6
f 19/66/6 55/67/6 98/68/6
f 57/52/3 64/58/3 21/13/3
f 57/52/3 45/51/3 64/58/3
f 45/51/3 9/59/3 64/58/3
f 59/52/4 70/58/4 23/13/4
f 59/52/4 52/51/4 70/58/4
f 52/51/4 16/59/4 70/58/4
f 61/52/5 76/58/5 25/13/5
f 61/52/5 29/51/5 76/58/5
f 29/51/5 11/59/5 76/58/5
f 62/52/6 79/58/6 26/13/6
f 62/52/6 34/51/6 79/58/6
f 34/51/6 16/59/6 79/58/6
f 29/55/3 82/65/3 11/62/3
f 29/55/3 48/54/3 82/65/3
f 48/54/3 12/66/3 82/65/3
f 36/55/4 88/65/4 18/62/4
f 36/55/4 32/54/4 88/65/4
f 32/54/4 14/66/4 88/65/4
f 54/55/5 94/65/5 18/62/5
f 54/55/5 38/54/5 94/65/5
f 38/54/5 20/66/5 94/65/5
f 45/55/6 97/65/6 9/62/6
f 45/55/6 37/54/6 97/65/6
f 37/54/6 19/66/6 97/65/6
f 39/57/3 28/69/3 2/70/3
f 39/57/3 63/56/3 28/69/3
f 63/56/3 10/71/3 28/69/3
f 63/56/3 65/61/3 10/71/3
f 63/56/3 64/58/3 65/61/3
f 64/58/3 9/59/3 65/61/3
f 65/61/3 46/72/3 10/71/3
f 65/61/3 27/60/3 46/72/3
f 27/60/3 6/73/3 46/72/3
f 41/57/4 35/69/4 4/70/4
f 41/57/4 69/56/4 35/69/4
f 69/56/4 17/71/4 35/69/4
f 69/56/4 71/61/4 17/71/4
f 69/56/4 70/58/4 71/61/4
f 70/58/4 16/59/4 71/61/4
f 71/61/4 53/72/4 17/71/4
f 71/61/4 34/60/4 53/72/4
f 34/60/4 8/73/4 53/72/4
f 43/57/5 51/69/5 3/70/5
f 43/57/5 75/56/5 51/69/5
f 75/56/5 15/71/5 51/69/5
f 75/56/5 77/61/5 15/71/5
f 75/56/5 76/58/5 77/61/5
f 76/58/5 11/59/5 77/61/5
f 77/61/5 33/72/5 15/71/5
f 77/61/5 47/60/5 33/72/5
f 47/60/5 2/73/5 33/72/5
f 44/57/6 49/69/6 6/70/6
f 44/57/6 78/56/6 49/69/6
f 78/56/6 13/71/6 49/69/6
f 78/56/6 80/61/6 13/71/6
f 78/56/6 79/58/6 80/61/6
f 79/58/6 16/59/6 80/61/6
f 80/61/6 31/72/6 13/71/6
f 80/61/6 52/60/6 31/72/6
f 52/60/6 7/73/6 31/72/6
f 47/64/3 39/57/3 2/70/3
f 47/64/3 81/63/3 39/57/3
f 81/63/3 21/13/3 39/57/3
f 81/63/3 83/68/3 21/13/3
f 81/63/3 82/65/3 83/68/3
f 82/65/3 12/66/3 83/68/3
f 83/68/3 57/52/3 21/13/3
f 83/68/3 30/67/3 57/52/3
f 30/67/3 5/50/3 57/52/3
f 54/64/4 41/57/4 4/70/4
f 54/64/4 87/63/4 41/57/4
f 87/63/4 23/13/4 41/57/4
f 87/63/4 89/68/4 23/13/4
f 87/63/4 88/65/4 89/68/4
f 88/65/4 14/66/4 89/68/4
f 89/68/4 59/52/4 23/13/4
f 89/68/4 50/67/4 59/52/4
f 50/67/4 7/50/4 59/52/4
f 36/64/5 43/57/5 3/70/5
f 36/64/5 93/63/5 43/57/5
f 93/63/5 25/13/5 43/57/5
f 93/63/5 95/68/5 25/13/5
f 93/63/5 94/65/5 95/68/5
f 94/65/5 20/66/5 95/68/5
f 95/68/5 61/52/5 25/13/5
f 95/68/5 56/67/5 61/52/5
f 56/67/5 1/50/5 61/52/5
f 27/64/6 44/57/6 6/70/6
f 27/64/6 96/63/6 44/57/6
f 96/63/6 26/13/6 44/57/6
f 96/63/6 98/68/6 26/13/6
f 96/63/6 97/65/6 98/68/6
f 97/65/6 19/66/6 98/68/6
f 98/68/6 62/52/6 26/13/6
f 98/68/6 55/67/6 62/52/6
f 55/67/6 8/50/6 62/52/6
